<?xml version="1.0" standalone="no"?><!DOCTYPE svg PUBLIC "-//W3C//DTD SVG 1.1//EN" "http://www.w3.org/Graphics/SVG/1.1/DTD/svg11.dtd"><svg t="1679472009425" class="icon" viewBox="0 0 1024 1024" version="1.1" xmlns="http://www.w3.org/2000/svg" p-id="7100" xmlns:xlink="http://www.w3.org/1999/xlink" width="200" height="200"><path d="M 114.95 629.48 s -134.39 -197.75 80.63 -271.66 l 16.32 -9.6 s 8.64 -111.35 118.07 -142.07 c 0 0 68.16 -1.92 96.95 0 c 0 0 48.96 -99.83 174.71 -66.24 c 0 0 41.28 14.4 69.11 45.12 c 0 0 191.03 -62.4 181.43 124.79 c 0 0 -37.44 -173.75 -174.71 -79.67 c 0 0 -125.75 -135.35 -214.06 -19.2 l -20.16 32.64 s -171.83 -37.44 -207.35 137.27 c 0.01 -0.01 -203.49 31.67 -120.94 248.62 Z" fill="#1296db" p-id="7101"></path><path d="M 176.39 563.24 a 74.39 66.24 0 1 0 148.78 0 a 74.39 66.24 0 1 0 -148.78 0 Z" fill="#1296db" p-id="7102"></path><path d="M 383.25 414.93 m -69.12 0 a 69.12 69.12 0 1 0 138.24 0 a 69.12 69.12 0 1 0 -138.24 0 Z" fill="#1296db" p-id="7103"></path><path d="M 568.52 310.3 m -71.03 0 a 71.03 71.03 0 1 0 142.06 0 a 71.03 71.03 0 1 0 -142.06 0 Z" fill="#1296db" p-id="7104"></path><path d="M 673.15 329.5 a 61.44 70.07 0 1 0 122.88 0 a 61.44 70.07 0 1 0 -122.88 0 Z" fill="#1296db" p-id="7105"></path><path d="M 289.66 723.55 s 136.31 263.02 395.49 137.27 c 0 0 171.83 -88.31 136.31 -350.37 c 0 0 108.47 252.46 -122.87 383.97 c 0 0 -291.82 148.79 -408.93 -170.87 Z" fill="#1296db" p-id="7106"></path><path d="M 446.13 650.59 s 84.95 -139.67 239.02 -87.35 c 37.04 12.58 110.87 94.55 0 156.47 c -18.65 10.41 -43.2 7.68 -85.43 0 c 0 0 -29.76 63.36 -64.32 74.87 c 0 0 -134.39 57.6 -89.27 -143.99 Z" fill="#1296db" p-id="7107"></path></svg>