<?xml version="1.0" standalone="no"?><!DOCTYPE svg PUBLIC "-//W3C//DTD SVG 1.1//EN" "http://www.w3.org/Graphics/SVG/1.1/DTD/svg11.dtd"><svg t="1679471653435" class="icon" viewBox="0 0 1024 1024" version="1.1" xmlns="http://www.w3.org/2000/svg" p-id="54082" xmlns:xlink="http://www.w3.org/1999/xlink" width="200" height="200"><path d="M799 832H224c-17.7 0-32 14.3-32 32s14.3 32 32 32h575c17.7 0 32-14.3 32-32s-14.3-32-32-32z m97-704H128c-35.3 0-64 28.7-64 64v511c0 35.3 28.7 64 64 64h768c35.3 0 64-28.7 64-64V192c0-35.3-28.7-64-64-64zM623.9 473.6l-197.6 98.5c-19.4 9.7-42.3-4.4-42.3-26v-197c0-21.6 22.9-35.7 42.3-26l197.6 98.5c21.5 10.7 21.5 41.3 0 52z" fill="#45C6FD" p-id="54083"></path></svg>