<?xml version="1.0" standalone="no"?><!DOCTYPE svg PUBLIC "-//W3C//DTD SVG 1.1//EN" "http://www.w3.org/Graphics/SVG/1.1/DTD/svg11.dtd"><svg t="1679472049358" class="icon" viewBox="0 0 1024 1024" version="1.1" xmlns="http://www.w3.org/2000/svg" p-id="8204" xmlns:xlink="http://www.w3.org/1999/xlink" width="200" height="200"><path d="M464 496H272c-17.6 0-32-14.4-32-32s14.4-32 32-32h192c17.6 0 32 14.4 32 32s-14.4 32-32 32z" fill="#1296db" p-id="8205"></path><path d="M368 720c-17.6 0-32-14.4-32-32V464c0-17.6 14.4-32 32-32s32 14.4 32 32v224c0 17.6-14.4 32-32 32zM656 720c-12.8 0-24-8-28.8-19.2l-96-224c-6.4-16 0-35.2 16-41.6 16-6.4 35.2 0 41.6 17.6L656 608l67.2-155.2c6.4-16 25.6-24 41.6-17.6 16 6.4 24 25.6 16 41.6l-96 224c-4.8 11.2-16 19.2-28.8 19.2z" fill="#1296db" p-id="8206"></path><path d="M848 928H176c-52.8 0-96-43.2-96-96V320c0-52.8 43.2-96 96-96h672c52.8 0 96 43.2 96 96v512c0 52.8-43.2 96-96 96zM176 288c-17.6 0-32 14.4-32 32v512c0 17.6 14.4 32 32 32h672c17.6 0 32-14.4 32-32V320c0-17.6-14.4-32-32-32H176z" fill="#1296db" p-id="8207"></path><path d="M448 288c-8 0-16-3.2-22.4-9.6l-160-160c-12.8-12.8-12.8-32 0-44.8 12.8-12.8 32-12.8 44.8 0l160 160c12.8 12.8 12.8 32 0 44.8-6.4 6.4-14.4 9.6-22.4 9.6zM576 288c-8 0-16-3.2-22.4-9.6-12.8-12.8-12.8-32 0-44.8l160-160c12.8-12.8 32-12.8 44.8 0 12.8 12.8 12.8 32 0 44.8l-160 160c-6.4 6.4-14.4 9.6-22.4 9.6z" fill="#1296db" p-id="8208"></path></svg>